<svg width="35" height="35" viewBox="0 0 35 35" fill="none" xmlns="http://www.w3.org/2000/svg">
<path d="M17.5 2.91667C9.44999 2.91667 2.91666 9.45 2.91666 17.5C2.91666 25.55 9.44999 32.0833 17.5 32.0833C25.55 32.0833 32.0833 25.55 32.0833 17.5C32.0833 9.45 25.55 2.91667 17.5 2.91667ZM10.3104 26.6583C10.9375 25.3458 14.7583 24.0625 17.5 24.0625C20.2417 24.0625 24.0771 25.3458 24.6896 26.6583C22.7062 28.2333 20.2125 29.1667 17.5 29.1667C14.7875 29.1667 12.2937 28.2333 10.3104 26.6583ZM26.775 24.5438C24.6896 22.0063 19.6292 21.1458 17.5 21.1458C15.3708 21.1458 10.3104 22.0063 8.22499 24.5438C6.73749 22.5896 5.83332 20.1542 5.83332 17.5C5.83332 11.0688 11.0687 5.83333 17.5 5.83333C23.9312 5.83333 29.1667 11.0688 29.1667 17.5C29.1667 20.1542 28.2625 22.5896 26.775 24.5438ZM17.5 8.75C14.6708 8.75 12.3958 11.025 12.3958 13.8542C12.3958 16.6833 14.6708 18.9583 17.5 18.9583C20.3292 18.9583 22.6042 16.6833 22.6042 13.8542C22.6042 11.025 20.3292 8.75 17.5 8.75ZM17.5 16.0417C16.2896 16.0417 15.3125 15.0646 15.3125 13.8542C15.3125 12.6438 16.2896 11.6667 17.5 11.6667C18.7104 11.6667 19.6875 12.6438 19.6875 13.8542C19.6875 15.0646 18.7104 16.0417 17.5 16.0417Z" fill="#ECE5F0"/>
</svg>
