<svg width="34" height="35" viewBox="0 0 34 35" fill="none" xmlns="http://www.w3.org/2000/svg">
<path d="M25.5 8.75H22.6667C22.6667 5.52708 20.1308 2.91667 17 2.91667C13.8692 2.91667 11.3333 5.52708 11.3333 8.75H8.49999C6.94166 8.75 5.66666 10.0625 5.66666 11.6667V29.1667C5.66666 30.7708 6.94166 32.0833 8.49999 32.0833H25.5C27.0583 32.0833 28.3333 30.7708 28.3333 29.1667V11.6667C28.3333 10.0625 27.0583 8.75 25.5 8.75ZM17 5.83333C18.5583 5.83333 19.8333 7.14583 19.8333 8.75H14.1667C14.1667 7.14583 15.4417 5.83333 17 5.83333ZM25.5 29.1667H8.49999V11.6667H11.3333V14.5833C11.3333 15.3854 11.9708 16.0417 12.75 16.0417C13.5292 16.0417 14.1667 15.3854 14.1667 14.5833V11.6667H19.8333V14.5833C19.8333 15.3854 20.4708 16.0417 21.25 16.0417C22.0292 16.0417 22.6667 15.3854 22.6667 14.5833V11.6667H25.5V29.1667Z" fill="#ECE5F0"/>
</svg>
