<svg width="34" height="34" viewBox="0 0 34 34" fill="none" xmlns="http://www.w3.org/2000/svg">
<path d="M29.5233 6.53083C28.7998 5.80692 27.9406 5.23267 26.9951 4.84087C26.0495 4.44907 25.036 4.24741 24.0125 4.24741C22.989 4.24741 21.9755 4.44907 21.0299 4.84087C20.0843 5.23267 19.2252 5.80692 18.5017 6.53083L17 8.0325L15.4983 6.53083C14.0368 5.06927 12.0545 4.24817 9.9875 4.24817C7.92053 4.24817 5.93823 5.06927 4.47666 6.53083C3.0151 7.9924 2.194 9.9747 2.194 12.0417C2.194 14.1086 3.0151 16.0909 4.47666 17.5525L5.97833 19.0542L17 30.0758L28.0217 19.0542L29.5233 17.5525C30.2472 16.8289 30.8215 15.9698 31.2133 15.0243C31.6051 14.0787 31.8067 13.0652 31.8067 12.0417C31.8067 11.0181 31.6051 10.0046 31.2133 9.05908C30.8215 8.11351 30.2472 7.2544 29.5233 6.53083V6.53083Z" stroke="#ECE5F0" stroke-width="3" stroke-linecap="round" stroke-linejoin="round"/>
</svg>
