<svg width="23" height="16" viewBox="0 0 23 16" fill="none" xmlns="http://www.w3.org/2000/svg">
<path fill-rule="evenodd" clip-rule="evenodd" d="M21.4 12.8C22.2837 12.8 23 13.5163 23 14.4V14.4C23 15.2837 22.2837 16 21.4 16H1.6C0.716345 16 0 15.2837 0 14.4V14.4C0 13.5163 0.716344 12.8 1.6 12.8H21.4ZM21.4 6.4C22.2837 6.4 23 7.11635 23 8V8C23 8.88366 22.2837 9.6 21.4 9.6H1.6C0.716345 9.6 0 8.88366 0 8V8C0 7.11635 0.716344 6.4 1.6 6.4H21.4ZM21.4 0C22.2837 0 23 0.716345 23 1.6V1.6C23 2.48366 22.2837 3.2 21.4 3.2H1.6C0.716345 3.2 0 2.48366 0 1.6V1.6C0 0.716345 0.716344 0 1.6 0H21.4Z" fill="#ECE5F0"/>
</svg>
